<?xml version="1.0" encoding="utf-8"?>
<svg version="1.1" xmlns:xlink="http://www.w3.org/1999/xlink" width="21.0157450641103px" height="20px" viewBox="212.991812586654 593.039677541567  21.0157450641103 20" xmlns="http://www.w3.org/2000/svg">
  <defs>
    <mask fill="white" id="clip86">
      <path d="M 228.5 589  L 277.5 589  L 277.5 619  L 228.5 619  Z M 211 589  L 294 589  L 294 619  L 211 619  Z " fill-rule="evenodd" />
    </mask>
  </defs>
  <g transform="matrix(0.999874047483598 -0.0158710166267592 0.015871016626761 0.999874047483598 -9.54270240110316 3.62312158347083 )">
    <path d="M 222.999748094967 603.031742033253  L 282.000251905033 603.968257966747  " stroke-width="2" stroke="#0099cc" fill="none" mask="url(#clip86)" />
    <path d="M 228.038079043551 607.405149528002  L 223.813859105093 603.04466443024  L 228.174344202856 598.820444491782  L 226.782753771202 597.383964046204  L 221.70402845065 602.303979200488  L 220.985788227861 602.999774416315  L 221.681583443688 603.718014639104  L 226.601598597972 608.796739959656  L 228.038079043551 607.405149528002  Z M 276.961920956449 599.594850471998  L 281.186140894907 603.95533556976  L 276.825655797144 608.179555508218  L 278.217246228798 609.616035953796  L 283.29597154935 604.696020799512  L 284.014211772139 604.000225583685  L 283.318416556312 603.281985360896  L 278.398401402028 598.203260040344  L 276.961920956449 599.594850471998  Z " fill-rule="nonzero" fill="#0099cc" stroke="none" mask="url(#clip86)" />
  </g>
</svg>