<?xml version="1.0" encoding="utf-8"?>
<svg version="1.1" xmlns:xlink="http://www.w3.org/1999/xlink" width="10px" height="58px" preserveAspectRatio="xMidYMin meet" viewBox="771 665  8 58" xmlns="http://www.w3.org/2000/svg">
  <defs>
    <mask fill="white" id="clip94">
      <path d="M 443.5 703  L 492.5 703  L 492.5 733  L 443.5 733  Z M 146 655  L 785 655  L 785 733  L 146 733  Z " fill-rule="evenodd" />
    </mask>
  </defs>
  <path d="M 156 672  L 156 718  L 775 718  L 775 667  " stroke-width="2" stroke="#0099cc" fill="none" mask="url(#clip94)" />
  <path d="M 151.707106781187 677.107106781187  L 156 672.814213562373  L 160.292893218813 677.107106781187  L 161.707106781187 675.692893218813  L 156.707106781187 670.692893218813  L 156 669.985786437627  L 155.292893218813 670.692893218813  L 150.292893218813 675.692893218813  L 151.707106781187 677.107106781187  Z M 770.707106781187 672.107106781187  L 775 667.814213562373  L 779.292893218813 672.107106781187  L 780.707106781187 670.692893218813  L 775.707106781187 665.692893218813  L 775 664.985786437627  L 774.292893218813 665.692893218813  L 769.292893218813 670.692893218813  L 770.707106781187 672.107106781187  Z " fill-rule="nonzero" fill="#0099cc" stroke="none" mask="url(#clip94)" />
</svg>